<?xml version="1.0" encoding="UTF-8"?><svg id="Layer_2" xmlns="http://www.w3.org/2000/svg" viewBox="0 0 83.05 32.76"><defs><style>.cls-1{fill:#fff;}</style></defs><g id="Layer_1-2"><path class="cls-1" d="m5.44,26.28v-13.54H0v-4.07h5.44v-2.99c0-1.73.58-3.11,1.73-4.14,1.15-1.03,2.68-1.55,4.57-1.55h5.8v3.96h-5.69c-.58,0-1.04.16-1.39.49-.35.32-.52.76-.52,1.31v2.92h7.6v4.07h-7.6v13.54h-4.5Z"/><path d="m23.04,26.28V6.48h4.25v3.78h1.12l-1.33,2.3c0-2.14.48-3.74,1.44-4.82.96-1.08,2.38-1.62,4.25-1.62,2.14,0,3.82.66,5.04,1.98,1.22,1.32,1.84,3.14,1.84,5.47v1.44h-4.72v-1.12c0-1.27-.33-2.26-.99-2.95-.66-.7-1.57-1.04-2.72-1.04s-2.08.35-2.72,1.04-.95,1.68-.95,2.95v12.38h-4.5Z"/><path d="m44.03,32.76V6.48h4.39v3.78h1.01l-1.01,1.04c0-1.61.48-2.87,1.44-3.8.96-.92,2.26-1.39,3.89-1.39,1.99,0,3.59.68,4.79,2.05,1.2,1.37,1.8,3.2,1.8,5.51v5.36c0,1.54-.27,2.87-.81,4.01-.54,1.14-1.3,2.02-2.29,2.65-.98.62-2.15.94-3.49.94-1.63,0-2.93-.46-3.89-1.39s-1.44-2.19-1.44-3.8l1.01,1.04h-1.04l.14,4.72v5.54h-4.5Zm8.14-10.01c1.15,0,2.05-.34,2.7-1.01.65-.67.97-1.63.97-2.88v-4.97c0-1.25-.32-2.21-.97-2.88-.65-.67-1.55-1.01-2.7-1.01s-2.02.34-2.66,1.03c-.65.68-.97,1.64-.97,2.86v4.97c0,1.22.32,2.18.97,2.86.65.68,1.54,1.03,2.66,1.03Z"/><path d="m70.77,26.28l-6.52-19.8h4.61l3.78,12.02c.22.72.43,1.46.63,2.23s.35,1.38.45,1.84c.12-.46.28-1.07.47-1.84s.38-1.5.58-2.2l3.71-12.06h4.57l-6.48,19.8h-5.8Z"/></g></svg>