<?xml version="1.0" encoding="utf-8"?>
<!-- Generator: Adobe Illustrator 27.3.1, SVG Export Plug-In . SVG Version: 6.00 Build 0)  -->
<svg version="1.1" id="Layer_1" xmlns="http://www.w3.org/2000/svg" xmlns:xlink="http://www.w3.org/1999/xlink" x="0px" y="0px"
	 viewBox="0 0 317 135" style="enable-background:new 0 0 317 135;" xml:space="preserve">
<style type="text/css">
	.st0{fill:#FFFFFF;}
	.st1{fill-rule:evenodd;clip-rule:evenodd;fill:#57C4F9;}
	.st2{fill:#57C4F9;}
</style>
<path class="st0" d="M117,51c0-23.7,19.3-43,43-43l0,0c23.7,0,43,19.3,43,43v31c0,23.7-19.3,43-43,43l0,0c-23.7,0-43-19.3-43-43V51z
	"/>
<path class="st1" d="M100.4,0c1.1,0,1.9,0.9,2,2.8c0.6,8.9,6.6,12.9,8.9,14.5c0.4,0.3,0.7,0.5,0.8,0.6
	c13.3-10.5,30.7-15.5,47.7-15.5c0.5,0,1,0,1.5,0c0.2,0,0.5,0,0.7,0c0.2,0,0.5,0,0.7,0c17,0,34.2,5,47.1,15.5
	c0.1-0.1,0.4-0.3,0.8-0.6c2.4-1.6,8.5-5.6,9.4-14.5c0.2-1.9,1-2.8,2.2-2.8c3.7,0,10.6,9.3,9.9,22.6c-0.6,10.9-6.4,14.1-6.4,14.1
	s2.2,4.3,4.8,11.1c3.4,7.5,6.3,15.8,8,24.3c-3.6,1.6-6.7,3.7-8.9,6.7c-3.4,4.6-6.9,7.4-9.9,10l-0.1,0.1c-1.8,1.5-3.5,2.9-5,4.5
	c-0.5,0.5-1,1.1-1.5,1.7c-3.6,4.6-4.6,11.4,0.5,15.5c0.3,0.3,0.7,0.5,1.1,0.8c2.6,1.7,6,2.6,9.7,2.6c4.3,0,8.8-1.2,12.5-3.4
	c1,4.1,3.3,8.3,7.7,11.6c0.2,0.2,0.4,0.3,0.7,0.5c1.6,1,3.5,1.6,5.4,1.6c5,0,9.3-3.4,10.1-4.1c1.1-0.9,2.1-2,3.1-3.4
	c0.1,0.2,0.1,0.3,0.2,0.5c1,2.4,2.5,4.8,4.8,7c0.2,0.2,0.5,0.5,0.7,0.7c1.8,1.4,4,2.2,6.5,2.2c3.4,0,7-1.5,9.1-2.9
	c2.6-1.7,5-4.4,7.5-8.3c0.3,0.1,0.5,0.3,0.8,0.4c1.9,0.8,4,1.3,6.2,1.3c0.4,0,0.8,0,1.2,0c6.2-0.5,11.7-4.3,13.6-9.8
	c1.9-5.1,2.1-10.2,0.9-14.7H314v42H2.5V93H0.8c-1.2,4.5-1,9.6,0.9,14.7c2.1,5.8,8.2,9.8,14.9,9.8c0.2,0,0.3,0,0.5,0
	c2.4-0.1,4.6-0.6,6.5-1.7c0.2,0.2,0.3,0.5,0.5,0.7c2.3,3.5,4.6,6,7,7.6c0.3,0.2,0.6,0.4,0.9,0.5C34,125.8,37,127,40,127
	c2.8,0,5.3-1,7.2-2.8c2.4-2.4,4-5,5-7.5c1,1.3,2,2.4,3.1,3.4c0.8,0.7,5,4.1,10.1,4.1c0.1,0,0.3,0,0.4,0c2.1-0.1,4.1-0.8,5.7-2
	c0.5-0.4,1.1-0.8,1.5-1.3c3.4-3.1,5.3-6.7,6.1-10.3c0.5,0.3,0.9,0.5,1.4,0.8c3.4,1.7,7.3,2.6,11.1,2.6c4.4,0,8-1.2,10.8-3.4
	c0,0,0.1-0.1,0.1-0.1c4.9-4.1,3.9-10.8,0.3-15.4c-0.5-0.6-0.9-1.1-1.4-1.7c-1.5-1.6-3.3-3.1-5.1-4.6c-3.1-2.5-6.6-5.4-10-10
	c-1.5-2-3.4-3.6-5.6-5c2-9,5.4-18,9.4-25.9c2.9-6.8,5.3-11.1,5.3-11.1s-5.7-3.2-5.8-14.1C89.5,9.3,96.8,0,100.4,0L100.4,0z M128,93
	c0,0,4.5,29.1,31.5,29.1c25.5,0,31.1-26,31.7-28.8c0-0.1,0-0.3,0-0.3h0c1.2-5.5,1.8-11.6,1.7-18.4c-0.9-30.5-16.6-44.9-32-44.9
	c-15.4,0-31.7,14.4-33.8,44.9C126.6,81.4,127,87.5,128,93z M161.5,12.6h-0.8c-22.3,0-33.1,14.8-33.9,26.8c-0.1,1.9-0.4,6.6,1.1,6.6
	c1.6-6.7,8.7-27.5,32.6-27.5h0.5c20.3,0.2,30.6,20.8,31.9,27.5c1.3,0,1.2-3.1,1.1-5.3c0-0.4,0-0.8,0-1.1c0.1-13.7-16-27-31.2-27
	C162.4,12.6,162,12.6,161.5,12.6z"/>
<path class="st1" d="M160.3,54.9c7,0,14.3,5.7,14.3,20.5c-0.1,15.2-7.8,21.4-15.1,21.4c-7.3,0-14.7-6.2-14.3-21.4
	c0.2-5.5,1.4-9.8,3.2-12.9c0,0.1,0,0.2,0,0.4c0,2.7,2.2,5,5,5c2.8,0,5-2.2,5-5c0-2.7-2.2-5-5-5c-0.5,0-1,0.1-1.5,0.2
	C154.5,55.9,157.5,54.9,160.3,54.9z"/>
<path class="st2" d="M40,124.6c-3.8,0-7.1-2.1-7.7-2.5c-2.7-1.8-5.3-4.9-8-9.7c-2.1,1.7-4.8,2.7-7.8,2.7c-5.7,0-10.8-3.4-12.6-8.2
	c-2.4-6.8-1.9-13.4,1.6-18.3c2.8-4,7.3-6.3,12.4-6.3c1.3,0,2.7,0.2,4.1,0.5c7.6-6.9,16.1-11.4,24.9-12.8c2.4-0.4,4.6-0.6,6.8-0.6
	c2.6,0,5.2,0.3,7.6,0.8c8.8,1.5,18.5,3.5,23.2,9.9c3.6,4.8,7.2,7.8,10.4,10.4c2.4,2,4.5,3.7,6.2,5.9c2.8,3.6,4,8.9-0.1,12.2
	c-2.3,1.9-5.6,2.9-9.3,2.9c-5.3,0-10.6-2-14.4-5.2c-0.1,4.7-2,10-7.3,14c-1.3,1-2.9,1.5-4.6,1.5c-3.2,0-6.6-1.9-8.5-3.5
	c-2.1-1.8-3.9-4.4-5.7-8.2c-0.1,3.8-1.5,8.4-5.7,12.5C44.2,123.9,42.3,124.6,40,124.6L40,124.6z"/>
<path class="st0" d="M53.7,71.8c2.1,0,4.6,0.2,7.2,0.8c9.3,1.5,17.7,3.6,21.7,8.9c6.5,8.6,13,11.7,16.6,16.3
	c1.2,1.5,3.7,6.1,0.3,8.8c-2,1.6-4.7,2.3-7.8,2.3c-5.1,0-11-2.2-14.6-6.3c-0.4-3.1-3.7-8.6-5.7-10.4c-0.1-0.1-0.3-0.3-0.3-0.4h0
	c2,3.3,2.6,6.8,3.4,10.3c0.3,1.3,2.1,9.9-5.9,16.1c-1,0.7-2,1-3.2,1c-2.8,0-5.7-1.8-6.9-2.9c-2.8-2.4-5.6-7.1-8.5-16.6
	c-0.4-1.2-0.6-2.9-0.7-4.7c-0.5-7.1,5.2-15.6,12.9-15.6c2,0,4.2,0.6,6.4,2c0.7,0.5,1,0.7,1,0.7c0,0,0,0,0-0.1
	c-0.1-0.2,0-0.1-0.1-0.3c-0.3-0.4,0.2-0.1-0.8-1c-2.6-2.2-5.3-3.1-7.9-3.1c-10.7,0-19.5,15.6-13.4,25.8c0,0,0,0,0,0
	c0.1,0.2,0.2,0.4,0.3,0.6c0.8,1.1,3.4,9.6-3.9,16.6c-1.1,1.1-2.4,1.5-3.8,1.5c-2.5,0-5.2-1.3-6.4-2.1c-3.1-2-6.4-6.3-10.5-15.4
	c-1.1-2.5-2.2-7.9-0.5-11.5c2-5,7.2-9.3,13.5-9.3c3.3,0,7,1.2,10.7,4.1l0,0c-1.1-2.6-4.6-4.6-7.6-5.4c-1.5-0.5-3.1-0.7-4.5-0.7
	c-13.2,0-23.6,18.6-10.8,27.5c-1.9,2.3-4.6,3.3-7.4,3.3c-4.4,0-8.8-2.5-10.3-6.6C1.9,94.2,8.4,84.7,17.9,84.7c1.5,0,3.1,0.2,4.8,0.8
	c6.8-6.5,15.1-11.5,24.6-13.1C48.8,72.1,51,71.8,53.7,71.8L53.7,71.8z M53.7,67c-2.3,0-4.7,0.2-7.2,0.6c-8.9,1.4-17.5,5.8-25.2,12.6
	c-1.1-0.2-2.3-0.3-3.4-0.3c-5.8,0-11,2.7-14.3,7.3c-3.9,5.5-4.6,13-1.9,20.5c2.1,5.8,8.2,9.8,14.9,9.8c2.5,0,4.9-0.6,7-1.7
	c2.4,3.9,4.9,6.6,7.5,8.3c2.1,1.4,5.6,2.9,9.1,2.9c2.8,0,5.3-1,7.2-2.8c2.4-2.4,4-5,5-7.5c1,1.3,2,2.4,3.1,3.4
	c0.8,0.7,5,4.1,10.1,4.1c2.3,0,4.4-0.7,6.1-2c4.4-3.3,6.7-7.5,7.7-11.6c3.7,2.2,8.1,3.4,12.5,3.4c4.4,0,8-1.2,10.8-3.4
	c5.1-4.1,4.1-10.9,0.5-15.5c-1.8-2.4-4.1-4.3-6.6-6.3c-3.1-2.5-6.6-5.4-10-10c-5.3-7-15.5-9.3-24.7-10.8C59.2,67.3,56.5,67,53.7,67
	L53.7,67z"/>
<path class="st2" d="M276.3,124.6c-2.2,0-4.1-0.7-5.5-2.1c-4.2-4.1-5.5-8.7-5.7-12.5c-1.8,3.8-3.6,6.5-5.7,8.2
	c-1.9,1.6-5.3,3.5-8.5,3.5c-1.8,0-3.3-0.5-4.6-1.5c-5.2-4-7.1-9.3-7.2-14c-3.8,3.3-9.1,5.2-14.4,5.2c-3.7,0-7-1-9.3-2.9
	c-4-3.2-2.9-8.6-0.1-12.2c1.7-2.2,3.8-3.9,6.2-5.9c3.2-2.6,6.8-5.6,10.4-10.4c4.7-6.3,14.5-8.4,23.2-9.9c2.4-0.5,5-0.8,7.6-0.8
	c2.2,0,4.4,0.2,6.8,0.6c8.8,1.4,17.3,5.8,24.9,12.8c1.4-0.3,2.7-0.5,4.1-0.5c5,0,9.5,2.3,12.4,6.3c3.5,4.9,4,11.5,1.6,18.3
	c-1.8,4.8-6.9,8.2-12.6,8.2c-3,0-5.7-0.9-7.8-2.7c-2.7,4.8-5.3,7.9-8,9.7C283.4,122.5,280.1,124.6,276.3,124.6L276.3,124.6z"/>
<path class="st0" d="M262.6,71.8c2.7,0,4.9,0.3,6.4,0.5c9.5,1.5,17.8,6.6,24.6,13.1c1.6-0.5,3.2-0.8,4.8-0.8c9.5,0,16,9.5,11.7,21.4
	c-1.5,4.1-5.9,6.6-10.3,6.6c-2.8,0-5.5-1-7.4-3.3c12.8-8.9,2.4-27.5-10.8-27.5c-1.5,0-3,0.2-4.5,0.7c-3,0.8-6.5,2.8-7.6,5.4l0,0
	c3.7-2.9,7.3-4.1,10.7-4.1c6.3,0,11.5,4.3,13.5,9.3c1.8,3.6,0.7,9-0.5,11.5c-4.1,9.1-7.4,13.4-10.5,15.4c-1.3,0.8-3.9,2.1-6.4,2.1
	c-1.4,0-2.8-0.4-3.8-1.5c-7.2-7.1-4.7-15.6-3.9-16.6c0.1-0.2,0.2-0.4,0.3-0.6c0,0,0,0,0,0c6.2-10.1-2.7-25.8-13.4-25.8
	c-2.6,0-5.3,0.9-7.9,3.1c-1,0.9-0.5,0.6-0.8,1c-0.1,0.2,0,0.1-0.1,0.3c-0.1,0.1-0.1,0.1,0,0.1c0.1,0,0.3-0.2,1-0.7
	c2.2-1.4,4.4-2,6.4-2c7.7,0,13.3,8.5,12.9,15.6c0,1.8-0.3,3.6-0.7,4.7c-2.9,9.5-5.7,14.2-8.5,16.6c-1.3,1.1-4.2,2.9-6.9,2.9
	c-1.1,0-2.2-0.3-3.2-1c-8.1-6.1-6.2-14.7-5.9-16.1c0.8-3.5,1.4-7,3.4-10.3h0c-0.1,0.2-0.2,0.3-0.3,0.4c-2,1.7-5.3,7.2-5.7,10.4
	c-3.6,4.1-9.4,6.3-14.6,6.3c-3,0-5.8-0.8-7.8-2.3c-3.4-2.7-0.8-7.3,0.3-8.8c3.7-4.7,10.1-7.7,16.6-16.3c4-5.4,12.5-7.4,21.7-8.9
	C258.1,72,260.5,71.8,262.6,71.8L262.6,71.8z M262.6,67c-2.8,0-5.5,0.3-8.1,0.9c-9.2,1.5-19.4,3.8-24.7,10.8c-3.4,4.6-6.9,7.5-10,10
	c-2.4,2-4.7,3.9-6.6,6.3c-3.6,4.6-4.6,11.4,0.5,15.5c2.8,2.2,6.5,3.4,10.8,3.4c4.3,0,8.8-1.2,12.5-3.4c1,4.1,3.3,8.3,7.7,11.6
	c1.7,1.3,3.8,2,6.1,2c5,0,9.3-3.4,10.1-4.1c1.1-0.9,2.1-2,3.1-3.4c1,2.5,2.6,5.1,5,7.5c1.9,1.9,4.4,2.8,7.2,2.8c3.4,0,7-1.5,9.1-2.9
	c2.6-1.7,5-4.4,7.5-8.3c2.1,1.1,4.4,1.7,7,1.7c6.7,0,12.8-4,14.9-9.8c2.7-7.5,2-15-1.9-20.5c-3.3-4.6-8.5-7.3-14.3-7.3
	c-1.1,0-2.2,0.1-3.4,0.3c-7.7-6.8-16.4-11.1-25.2-12.6C267.3,67.2,265,67,262.6,67L262.6,67z"/>
</svg>
