<?xml version="1.0" encoding="utf-8"?>
<!-- Generator: Adobe Illustrator 27.3.1, SVG Export Plug-In . SVG Version: 6.00 Build 0)  -->
<svg version="1.1" id="Layer_1" xmlns="http://www.w3.org/2000/svg" xmlns:xlink="http://www.w3.org/1999/xlink" x="0px" y="0px"
	 viewBox="0 0 321 135" style="enable-background:new 0 0 321 135;" xml:space="preserve">
<style type="text/css">
	.st0{fill-rule:evenodd;clip-rule:evenodd;fill:#57C4F9;}
</style>
<path class="st0" d="M102.4,0c1.1,0,1.9,0.9,2,2.8c0.6,8.9,6.6,12.9,8.9,14.5c0.4,0.3,0.7,0.5,0.8,0.6
	c13.3-10.5,30.7-15.5,47.7-15.5c0.5,0,1,0,1.5,0c0.2,0,0.5,0,0.7,0c0.2,0,0.5,0,0.7,0c17,0,34.2,5,47.1,15.5
	c0.1-0.1,0.4-0.3,0.8-0.6c2.4-1.6,8.5-5.6,9.4-14.5c0.2-1.9,1-2.8,2.2-2.8c3.7,0,10.6,9.3,9.9,22.6c-0.6,10.9-6.4,14.1-6.4,14.1
	s2.2,4.3,4.8,11.1c3.4,7.5,6.3,15.8,8,24.3c-3.6,1.6-6.7,3.7-8.9,6.7c-3.4,4.6-6.9,7.4-9.9,10l-0.1,0.1c-1.8,1.5-3.5,2.9-5,4.5
	c-0.5,0.5-1,1.1-1.5,1.7c-3.6,4.6-4.6,11.4,0.5,15.5c0.3,0.3,0.7,0.5,1.1,0.8c2.6,1.7,6,2.6,9.7,2.6c4.3,0,8.8-1.2,12.5-3.4
	c1,4.1,3.3,8.3,7.7,11.6c0.2,0.2,0.4,0.3,0.7,0.5c1.6,1,3.5,1.6,5.4,1.6c5,0,9.3-3.4,10.1-4.1c1.1-0.9,2.1-2,3.1-3.4
	c0.1,0.2,0.1,0.3,0.2,0.5c1,2.4,2.5,4.8,4.8,7c0.2,0.2,0.5,0.5,0.7,0.7c1.8,1.4,4,2.2,6.5,2.2c3.4,0,7-1.5,9.1-2.9
	c2.6-1.7,5-4.4,7.5-8.3c0.3,0.1,0.5,0.3,0.8,0.4c1.9,0.8,4,1.3,6.2,1.3c0.4,0,0.8,0,1.2,0c6.2-0.5,11.7-4.3,13.6-9.8
	c1.9-5.1,2.1-10.2,0.9-14.7h3.4v42H0V93h2.8c-1.2,4.5-1,9.6,0.9,14.7c2.1,5.8,8.2,9.8,14.9,9.8c0.2,0,0.3,0,0.5,0
	c2.4-0.1,4.6-0.6,6.5-1.7c0.2,0.2,0.3,0.5,0.5,0.7c2.3,3.5,4.6,6,7,7.6c0.3,0.2,0.6,0.4,0.9,0.5C36,125.8,39,127,42,127
	c2.8,0,5.3-1,7.2-2.8c2.4-2.4,4-5,5-7.5c1,1.3,2,2.4,3.1,3.4c0.8,0.7,5,4.1,10.1,4.1c0.1,0,0.3,0,0.4,0c2.1-0.1,4.1-0.8,5.7-2
	c0.5-0.4,1.1-0.8,1.5-1.3c3.4-3.1,5.3-6.7,6.1-10.3c0.5,0.3,0.9,0.5,1.4,0.8c3.4,1.7,7.3,2.6,11.1,2.6c4.4,0,8-1.2,10.8-3.4
	c0,0,0.1-0.1,0.1-0.1c4.9-4.1,3.9-10.8,0.3-15.4c-0.5-0.6-0.9-1.1-1.4-1.7c-1.5-1.6-3.3-3.1-5.1-4.6c-3.1-2.5-6.6-5.4-10-10
	c-1.5-2-3.4-3.6-5.6-5c2-9,5.4-18,9.4-25.9c2.9-6.8,5.3-11.1,5.3-11.1s-5.7-3.2-5.8-14.1C91.5,9.3,98.8,0,102.4,0L102.4,0z M130,93
	c0,0,4.5,29.1,31.5,29.1c25.5,0,30.4-23.6,31.7-29.1c1.3-5.5,1.8-11.6,1.7-18.4c-0.9-30.5-16.6-44.9-32-44.9
	c-15.4,0-31.7,14.4-33.8,44.9C128.6,81.4,129,87.5,130,93z M163.5,12.6h-0.8c-22.3,0-33.1,14.8-33.9,26.8c-0.1,1.9-0.4,6.6,1.1,6.6
	c1.6-6.7,8.7-27.5,32.6-27.5h0.5c20.3,0.2,30.6,20.8,31.9,27.5c1.3,0,1.2-3.1,1.1-5.3c0-0.4,0-0.8,0-1.1c0.1-13.7-16-27-31.2-27
	C164.4,12.6,164,12.6,163.5,12.6z"/>
<path class="st0" d="M162.3,54.9c7,0,14.3,5.7,14.3,20.5c-0.1,15.2-7.8,21.4-15.1,21.4c-7.3,0-14.7-6.2-14.3-21.4
	c0.2-5.5,1.4-9.8,3.2-12.9c0,0.1,0,0.2,0,0.4c0,2.7,2.2,5,5,5c2.8,0,5-2.2,5-5c0-2.7-2.2-5-5-5c-0.5,0-1,0.1-1.5,0.2
	C156.5,55.9,159.5,54.9,162.3,54.9z"/>
<path class="st0" d="M62.9,72.6c-2.6-0.6-5-0.8-7.2-0.8l0,0c-2.7,0-4.9,0.3-6.4,0.5c-9.5,1.6-17.8,6.6-24.6,13.1
	c-1.6-0.5-3.2-0.8-4.8-0.8c-9.5,0-16,9.5-11.7,21.4c1.5,4.1,5.9,6.6,10.3,6.6c2.8,0,5.5-1,7.4-3.3C13.2,100.5,23.5,82,36.7,82
	c1.5,0,3,0.2,4.5,0.7c3,0.8,6.5,2.8,7.6,5.4l0,0c-3.7-2.9-7.3-4.1-10.7-4.1c-6.3,0-11.5,4.3-13.5,9.3c-1.8,3.6-0.7,9,0.5,11.5
	c4.1,9.1,7.4,13.4,10.5,15.4c1.3,0.8,3.9,2.1,6.4,2.1c1.4,0,2.8-0.4,3.8-1.5c7.2-7.1,4.7-15.6,3.9-16.6c-0.1-0.2-0.2-0.3-0.2-0.5
	c0-0.1-0.1-0.1-0.1-0.2c0,0,0,0,0,0c-6.2-10.1,2.7-25.8,13.4-25.8c2.6,0,5.3,0.9,7.9,3.1c0.7,0.6,0.7,0.7,0.7,0.7c0,0,0,0.1,0.1,0.2
	c0.1,0.1,0.1,0.1,0.1,0.2c0,0,0,0.1,0,0.1c0,0.1,0.1,0.1,0,0.1c0,0-0.2-0.2-0.7-0.5c-0.1-0.1-0.2-0.2-0.3-0.3c-2.2-1.4-4.4-2-6.4-2
	c-7.7,0-13.3,8.5-12.9,15.6c0,1.8,0.3,3.6,0.7,4.7c2.9,9.5,5.7,14.2,8.5,16.6c1.3,1.1,4.2,2.9,6.9,2.9c1.1,0,2.2-0.3,3.2-1
	c8.1-6.2,6.2-14.7,5.9-16.1c-0.1-0.6-0.3-1.2-0.4-1.7c-0.7-2.9-1.3-5.8-3-8.6h0c0.1,0.2,0.2,0.3,0.3,0.4c2,1.7,5.3,7.2,5.7,10.4
	c3.6,4.1,9.4,6.3,14.6,6.3c3,0,5.8-0.8,7.8-2.3c3.4-2.7,0.8-7.3-0.3-8.8c-1.5-2-3.5-3.6-5.8-5.5c-3.2-2.7-7-5.8-10.8-10.8
	C80.6,76.1,72.1,74.1,62.9,72.6z"/>
<path class="st0" d="M271.1,72.4c-1.5-0.2-3.8-0.5-6.4-0.5l0,0c-2.1,0-4.6,0.2-7.2,0.8c-9.3,1.5-17.7,3.6-21.7,8.9
	c-3.8,5-7.6,8.2-10.8,10.8c-2.3,1.9-4.3,3.6-5.8,5.5c-1.2,1.5-3.7,6.1-0.3,8.8c2,1.6,4.7,2.3,7.8,2.3c5.1,0,11-2.2,14.6-6.3
	c0.4-3.1,3.7-8.6,5.7-10.4c0.1-0.1,0.3-0.3,0.3-0.4h0c-1.7,2.8-2.3,5.7-3,8.6c-0.1,0.6-0.3,1.2-0.4,1.7c-0.3,1.3-2.1,9.9,5.9,16.1
	c1,0.7,2.1,1,3.2,1c2.8,0,5.7-1.8,6.9-2.9c2.8-2.4,5.6-7.1,8.5-16.6c0.4-1.2,0.6-2.9,0.7-4.7c0.5-7.1-5.2-15.6-12.9-15.6
	c-2,0-4.2,0.6-6.4,2c-0.2,0.1-0.3,0.2-0.4,0.3c-0.4,0.3-0.5,0.4-0.6,0.4c0,0,0,0,0-0.1c0-0.1,0-0.1,0-0.1c0,0,0-0.1,0.1-0.2
	c0.1-0.1,0.1-0.2,0.1-0.2c0-0.1,0-0.2,0.7-0.7c2.6-2.2,5.3-3.1,7.9-3.1c10.7,0,19.6,15.6,13.4,25.8c0,0,0,0,0,0
	c-0.1,0.2-0.2,0.3-0.2,0.5c0,0.1-0.1,0.1-0.1,0.2c-0.8,1.1-3.4,9.6,3.9,16.6c1.1,1.1,2.4,1.5,3.8,1.5c2.5,0,5.2-1.3,6.4-2.1
	c3.1-2,6.4-6.3,10.5-15.4c1.1-2.5,2.3-7.9,0.5-11.5c-2-5-7.2-9.3-13.5-9.3c-3.3,0-7,1.2-10.7,4.1l0,0c1.1-2.6,4.6-4.6,7.6-5.4
	c1.5-0.5,3.1-0.7,4.5-0.7c13.2,0,23.6,18.6,10.8,27.5c1.9,2.3,4.6,3.3,7.4,3.3c4.4,0,8.8-2.5,10.3-6.6c4.3-11.9-2.2-21.4-11.7-21.4
	c-1.5,0-3.1,0.2-4.8,0.8C288.9,78.9,280.6,73.9,271.1,72.4z"/>
</svg>
